<svg id="Layer_1" data-name="Layer 1" xmlns="http://www.w3.org/2000/svg" viewBox="0 0 48 48"><defs><style>.cls-1{fill:#880e4f;}.cls-2{fill:#d81b60;}.cls-3{fill:#ff4081;}.cls-4{fill:#840855;}.cls-5{fill:#c90065;}.cls-6{fill:#ad1457;}.cls-7{fill:#ff80ab;}</style></defs><polygon class="cls-1" points="48 48 44 0 22.29 0 0 22.03 0 43.37 48 48"/><polygon class="cls-2" points="12 32 48 48 32 13 12 32"/><polygon class="cls-3" points="32 13 44 0 48 48 32 13"/><line class="cls-4" x1="48" y1="48" y2="43.37"/><polygon class="cls-3" points="12 10.17 32 13 12 32 12 10.17"/><polygon class="cls-5" points="32 13 22.29 0 12 10.17 32 13"/><polygon class="cls-5" points="12 32.56 12 10.17 0 22 12 32.56"/><polygon class="cls-6" points="0 22 0 43 12 32 0 22"/><polygon class="cls-7" points="22.33 0 32 13 44 0 22.33 0"/></svg>