<svg id="Layer_1" data-name="Layer 1" xmlns="http://www.w3.org/2000/svg" xmlns:xlink="http://www.w3.org/1999/xlink" viewBox="0 0 1920.5 868.07"><defs><style>.cls-1,.cls-2{stroke:#000;stroke-miterlimit:10;}.cls-1{fill:url(#linear-gradient);}.cls-2{fill:url(#linear-gradient-2);}</style><linearGradient id="linear-gradient" x1="2213.83" y1="-543.94" x2="-219.93" y2="889.73" gradientUnits="userSpaceOnUse"><stop offset="0.2" stop-color="blue"/><stop offset="0.77" stop-color="#f0f"/><stop offset="1" stop-color="#fff"/></linearGradient><linearGradient id="linear-gradient-2" x1="1952.02" y1="-271.4" x2="-190.57" y2="589.44" gradientUnits="userSpaceOnUse"><stop offset="0" stop-color="blue"/><stop offset="0.54" stop-color="#f0f"/><stop offset="1" stop-color="blue"/></linearGradient></defs><path class="cls-1" d="M1918.5,307.5c1,85-88,158-175,67-281.72-294.67-504.89,433.7-696,139-238-367-486.57,393.48-592,202-174-316-326,136-456,152V15.5h1920" transform="translate(1)"/><path class="cls-2" d="M1918.53,176.52c1,85-88,158-175,67-281.72-294.67-504.89,433.7-696,139-238-367-486.57,393.48-592,202-174-316-326,136-456,152,0,0,0-719,0-736h1920" transform="translate(1)"/></svg>