<svg id="Layer_1" data-name="Layer 1" xmlns="http://www.w3.org/2000/svg" viewBox="0 0 426.39 422.25"><defs><style>.cls-1{fill:#29e6ff;}</style></defs><path class="cls-1" d="M247,27.39c4.54-3,3.94-9.67,3.31-9.94s-8-1.93-2.48,6.08c.48.71-4.15,5.8-9.94,2.76-1.8-.94-3.06-3.11-4.7-7.18-1.29-3.21-3.11-7.71-6.63-10.22-4.67-3.32-12.24-3-16,.56-1.58,1.51-3.94,4.46-3,6.35,0,0,.56,2.21,2.21,2.48.68.12,5.8,1.66,2.21-4.69-1.59-2.81,4.54-3.15,7.18-2.76,2.13.31,7.57,1.28,9.11,7.18C231.22,29.6,238.67,32.92,247,27.39Z" transform="translate(-14.54 -5.08)"/><path class="cls-1" d="M238.75,25.79c10.16-5.61,7.13-11.74,2.7-12.3s-8.72-1.56-8.72-1.56l10.38,5.44Z" transform="translate(-14.54 -5.08)"/><path class="cls-1" d="M264.56,15.2c-9.41,6.8-5.65,12.52-1.19,12.54s8.84.49,8.84.49l-11-4.13Z" transform="translate(-14.54 -5.08)"/><path class="cls-1" d="M288.42,33.35c4.84-2.52,5-9.19,4.36-9.52S285,21,289.66,29.6c.41.76-4.75,5.32-10.18,1.67-1.69-1.13-2.71-3.42-3.9-7.64-.94-3.34-2.25-8-5.48-10.87-4.29-3.81-11.84-4.35-16-1.18-1.74,1.33-4.4,4-3.71,6,0,0,.31,2.26,1.93,2.71.67.19,5.59,2.28,2.7-4.42-1.27-3,4.86-2.65,7.44-2,2.09.55,7.38,2.1,8.28,8.12C272.53,33.85,279.59,38,288.42,33.35Z" transform="translate(-14.54 -5.08)"/><path class="cls-1" d="M280.43,30.87c10.71-4.48,8.35-10.9,4-11.94s-8.5-2.48-8.5-2.48L285.67,23Z" transform="translate(-14.54 -5.08)"/><path class="cls-1" d="M307.06,26.27c-10.68,4.57-8.27,11-3.93,12s8.52,2.42,8.52,2.42l-9.78-6.44Z" transform="translate(-14.54 -5.08)"/><path class="cls-1" d="M326.33,49.23c5.28-1.39,6.87-7.87,6.36-8.33s-6.95-4.42-4.32,4.94c.23.83-5.8,4.15-10.3-.61-1.4-1.47-1.88-3.93-2.12-8.31-.18-3.46-.43-8.31-2.95-11.81-3.35-4.66-10.6-6.86-15.33-4.67-2,.91-5.18,2.94-4.93,5,0,0-.2,2.27,1.28,3.07.61.33,5,3.44,3.61-3.73-.59-3.17,5.32-1.5,7.69-.28,1.92,1,6.74,3.67,6.29,9.74C310.72,46.22,316.7,51.77,326.33,49.23Z" transform="translate(-14.54 -5.08)"/><path class="cls-1" d="M319.08,45.05c11.43-2,10.55-8.79,6.55-10.76s-7.75-4.3-7.75-4.3l8.06,8.51Z" transform="translate(-14.54 -5.08)"/><path class="cls-1" d="M346.21,45.57c-11.54,1.24-11.12,8.06-7.26,10.3s7.44,4.81,7.44,4.81l-7.47-9Z" transform="translate(-14.54 -5.08)"/><path class="cls-1" d="M357.92,73.16c5.46.22,8.87-5.51,8.52-6.1s-5.35-6.27-5.58,3.46c0,.86-6.76,2.26-9.67-3.6-.9-1.82-.65-4.31.41-8.57.84-3.36,2-8.07.63-12.16-1.83-5.43-8.12-9.65-13.29-8.95-2.17.3-5.81,1.3-6.19,3.36,0,0-.85,2.12.33,3.31.49.49,3.73,4.75,4.55-2.5.36-3.21,5.52.11,7.43,2,1.54,1.51,5.37,5.48,3.16,11.16C343.88,65.72,348,72.77,357.92,73.16Z" transform="translate(-14.54 -5.08)"/><path class="cls-1" d="M352.21,67.05c11.52,1.42,12.67-5.32,9.41-8.38s-6.15-6.37-6.15-6.37l5.22,10.49Z" transform="translate(-14.54 -5.08)"/><path class="cls-1" d="M378.67,73.58c-11.59-.77-12.35,6-8.93,8.89s6.5,6,6.5,6l-5.8-10.18Z" transform="translate(-14.54 -5.08)"/><path class="cls-1" d="M385.44,102.78c5.34,1.15,9.69-3.91,9.44-4.55s-4.19-7.09-6.09,2.45c-.17.85-7.05,1.07-8.9-5.21-.58-2,.1-4.36,1.88-8.37,1.41-3.17,3.37-7.6,2.72-11.87-.87-5.66-6.34-10.91-11.55-11.11-2.19-.08-5.95.28-6.67,2.25,0,0-1.2,1.93-.25,3.31.39.57,2.85,5.32,4.91-1.68.91-3.1,5.42,1.07,7,3.23,1.26,1.75,4.35,6.32,1.19,11.54C372.89,93,375.71,100.68,385.44,102.78Z" transform="translate(-14.54 -5.08)"/><path class="cls-1" d="M380.87,95.77c11.11,3.39,13.39-3.06,10.72-6.63s-5-7.34-5-7.34L390,93Z" transform="translate(-14.54 -5.08)"/><path class="cls-1" d="M405.81,106c-11.28-2.74-13.19,3.83-10.31,7.23s5.37,7,5.37,7l-4-11Z" transform="translate(-14.54 -5.08)"/><path class="cls-1" d="M407.5,135.88c5.07,2.05,10.22-2.19,10.08-2.87s-2.92-7.7-6.42,1.38c-.31.8-7.12-.16-7.88-6.66-.24-2,.85-4.28,3.28-7.92,1.93-2.88,4.62-6.92,4.7-11.23.11-5.73-4.38-11.84-9.48-12.92-2.14-.46-5.91-.74-7,1.07,0,0-1.51,1.7-.81,3.23.29.62,1.91,5.72,5.13-.82,1.42-2.9,5.16,2,6.32,4.37,1,1.94,3.21,7-.79,11.57C396.81,124.13,398.27,132.15,407.5,135.88Z" transform="translate(-14.54 -5.08)"/><path class="cls-1" d="M404.2,128.2c10.36,5.23,13.71-.73,11.68-4.71s-3.63-8.07-3.63-8.07l1.37,11.63Z" transform="translate(-14.54 -5.08)"/><path class="cls-1" d="M425,145.46c-10.4-5.16-13.71.83-11.65,4.79s3.7,8.05,3.7,8.05l-1.46-11.63Z" transform="translate(-14.54 -5.08)"/><path class="cls-1" d="M420.06,175c4.49,3.11,10.44.11,10.46-.58s-1.15-8.15-6.57-.07c-.47.71-6.91-1.72-6.22-8.23.21-2,1.77-4,4.95-7,2.51-2.39,6-5.73,7.06-9.93,1.37-5.56-1.67-12.5-6.41-14.68-2-.92-5.6-2-7-.49,0,0-1.85,1.33-1.5,3,.15.67.59,6,5.18.32,2-2.51,4.6,3.07,5.21,5.66.49,2.1,1.59,7.51-3.32,11.12C412.21,161.2,411.87,169.35,420.06,175Z" transform="translate(-14.54 -5.08)"/><path class="cls-1" d="M418.52,166.8c9,7.38,13.54,2.31,12.44-2s-1.76-8.67-1.76-8.67L428,167.75Z" transform="translate(-14.54 -5.08)"/><path class="cls-1" d="M435.75,187.76c-8.44-8-13.35-3.22-12.54,1.17s1.18,8.78,1.18,8.78l2-11.54Z" transform="translate(-14.54 -5.08)"/><path class="cls-1" d="M422.38,214.58c3.38,4.29,10,3.17,10.17,2.51s1.29-8.13-6.25-2c-.67.54-6.11-3.66-3.55-9.69.8-1.86,2.86-3.29,6.79-5.25,3.1-1.55,7.44-3.71,9.65-7.42,2.94-4.92,2.06-12.45-1.83-15.92-1.63-1.46-4.76-3.57-6.57-2.52,0,0-2.16.73-2.3,2.4-.06.69-1.19,5.91,4.85,1.83,2.68-1.81,3.51,4.27,3.33,6.93-.14,2.16-.68,7.65-6.43,9.66C418.92,199.07,416.21,206.77,422.38,214.58Z" transform="translate(-14.54 -5.08)"/><path class="cls-1" d="M36.3,199.06c-3-4.55-9.67-3.95-9.94-3.31s-1.93,8,6.07,2.48c.71-.49,5.8,4.14,2.76,9.94-.94,1.8-3.11,3.06-7.17,4.7-3.22,1.29-7.72,3.1-10.22,6.62-3.32,4.67-3.05,12.25.55,16,1.51,1.58,4.47,3.94,6.35,3,0,0,2.21-.55,2.49-2.2.11-.69,1.65-5.8-4.7-2.21-2.81,1.59-3.15-4.55-2.76-7.18.32-2.14,1.29-7.57,7.18-9.11C38.51,214.8,41.82,207.34,36.3,199.06Z" transform="translate(-14.54 -5.08)"/><path class="cls-1" d="M34.7,207.27c-5.61-10.16-11.74-7.13-12.31-2.7s-1.55,8.71-1.55,8.71l5.43-10.37Z" transform="translate(-14.54 -5.08)"/><path class="cls-1" d="M24.11,181.45c6.8,9.41,12.52,5.66,12.54,1.2s.48-8.85.48-8.85l-4.13,11Z" transform="translate(-14.54 -5.08)"/><path class="cls-1" d="M42.26,157.6c-2.53-4.85-9.19-5-9.53-4.36S30,161,38.5,156.36c.76-.41,5.32,4.74,1.68,10.18-1.13,1.69-3.43,2.7-7.65,3.89-3.33.94-8,2.26-10.87,5.49-3.8,4.28-4.35,11.84-1.18,16,1.34,1.74,4,4.4,6,3.7,0,0,2.25-.31,2.71-1.92.18-.67,2.27-5.59-4.43-2.71-3,1.28-2.64-4.85-2-7.43.54-2.09,2.09-7.39,8.12-8.29C42.76,173.49,46.85,166.43,42.26,157.6Z" transform="translate(-14.54 -5.08)"/><path class="cls-1" d="M39.78,165.59c-4.48-10.71-10.9-8.36-11.94-4s-2.49,8.5-2.49,8.5l6.52-9.73Z" transform="translate(-14.54 -5.08)"/><path class="cls-1" d="M35.18,139c4.56,10.67,11,8.27,12,3.92s2.42-8.51,2.42-8.51l-6.45,9.78Z" transform="translate(-14.54 -5.08)"/><path class="cls-1" d="M58.14,119.69c-1.4-5.29-7.88-6.87-8.33-6.36s-4.43,7,4.94,4.32c.83-.23,4.14,5.8-.61,10.3-1.48,1.4-3.94,1.88-8.32,2.11-3.46.19-8.3.44-11.81,3-4.65,3.34-6.85,10.59-4.67,15.33.92,2,2.95,5.18,5,4.93,0,0,2.26.19,3.06-1.28.33-.61,3.45-4.95-3.72-3.61-3.18.59-1.51-5.32-.29-7.69,1-1.92,3.67-6.74,9.75-6.29C55.12,135.29,60.67,129.31,58.14,119.69Z" transform="translate(-14.54 -5.08)"/><path class="cls-1" d="M54,126.94c-2-11.44-8.8-10.56-10.76-6.55s-4.3,7.74-4.3,7.74l8.5-8Z" transform="translate(-14.54 -5.08)"/><path class="cls-1" d="M54.48,99.81c1.23,11.54,8.06,11.12,10.29,7.25s4.81-7.43,4.81-7.43l-9,7.46Z" transform="translate(-14.54 -5.08)"/><path class="cls-1" d="M82.07,88.1c.21-5.46-5.52-8.87-6.11-8.52s-6.26,5.35,3.46,5.58c.86,0,2.27,6.75-3.59,9.67-1.82.9-4.32.65-8.57-.41-3.37-.84-8.07-2-12.16-.63-5.43,1.83-9.66,8.12-9,13.29.29,2.17,1.3,5.81,3.36,6.18,0,0,2.11.85,3.31-.33.49-.48,4.74-3.72-2.51-4.54-3.21-.36.12-5.53,2-7.43,1.5-1.55,5.48-5.38,11.16-3.17C74.62,102.14,81.68,98.05,82.07,88.1Z" transform="translate(-14.54 -5.08)"/><path class="cls-1" d="M76,93.81c1.42-11.53-5.32-12.67-8.37-9.41s-6.38,6.14-6.38,6.14l10.49-5.21Z" transform="translate(-14.54 -5.08)"/><path class="cls-1" d="M82.49,67.35c-.78,11.59,6,12.35,8.89,8.92s6-6.49,6-6.49l-10.18,5.8Z" transform="translate(-14.54 -5.08)"/><path class="cls-1" d="M111.68,60.58c1.16-5.34-3.9-9.69-4.54-9.44s-7.09,4.19,2.45,6.09c.84.17,1.06,7-5.22,8.9-1.94.58-4.36-.11-8.36-1.88-3.17-1.41-7.6-3.38-11.87-2.72C78.47,62.4,73.23,67.87,73,73.08c-.09,2.18.28,6,2.24,6.67,0,0,1.94,1.2,3.32.25.56-.4,5.31-2.85-1.69-4.91-3.1-.91,1.07-5.43,3.23-7,1.75-1.26,6.33-4.35,11.54-1.19C101.93,73.12,109.58,70.31,111.68,60.58Z" transform="translate(-14.54 -5.08)"/><path class="cls-1" d="M104.67,65.15c3.39-11.11-3-13.4-6.62-10.72s-7.34,5-7.34,5l11.23-3.33Z" transform="translate(-14.54 -5.08)"/><path class="cls-1" d="M114.86,40.21c-2.74,11.28,3.83,13.19,7.24,10.31s7-5.38,7-5.38l-11,4Z" transform="translate(-14.54 -5.08)"/><path class="cls-1" d="M144.79,38.52c2-5.07-2.2-10.22-2.87-10.08s-7.7,2.91,1.37,6.42c.8.31-.15,7.12-6.65,7.88-2,.24-4.28-.85-7.93-3.28-2.88-1.93-6.91-4.62-11.23-4.71-5.73-.11-11.83,4.39-12.92,9.49-.45,2.14-.74,5.91,1.08,7,0,0,1.7,1.51,3.22.8.63-.29,5.72-1.9-.82-5.12-2.9-1.43,2-5.16,4.37-6.33,1.94-.94,7-3.2,11.58.8C133,49.21,141.06,47.75,144.79,38.52Z" transform="translate(-14.54 -5.08)"/><path class="cls-1" d="M137.1,41.82c5.23-10.36-.73-13.72-4.7-11.69s-8.08,3.63-8.08,3.63L136,32.4Z" transform="translate(-14.54 -5.08)"/><path class="cls-1" d="M154.36,21c-5.15,10.41.83,13.71,4.79,11.65s8-3.69,8-3.69l-11.62,1.45Z" transform="translate(-14.54 -5.08)"/><path class="cls-1" d="M183.93,26c3.11-4.49.11-10.45-.58-10.46s-8.16,1.15-.08,6.56c.72.48-1.71,6.92-8.22,6.23-2-.22-4-1.77-7-4.95-2.39-2.51-5.73-6-9.92-7.06-5.57-1.37-12.51,1.67-14.69,6.41-.91,2-2,5.6-.49,7,0,0,1.33,1.85,3,1.5.68-.15,6-.6.33-5.18-2.51-2,3.06-4.6,5.66-5.21,2.1-.49,7.51-1.59,11.11,3.32C170.1,33.81,178.26,34.14,183.93,26Z" transform="translate(-14.54 -5.08)"/><path class="cls-1" d="M175.7,27.49c7.39-8.95,2.31-13.54-2-12.43S165,16.82,165,16.82l11.65,1.23Z" transform="translate(-14.54 -5.08)"/><path class="cls-1" d="M196.66,10.26c-8,8.44-3.21,13.36,1.18,12.55s8.77-1.18,8.77-1.18l-11.54-2Z" transform="translate(-14.54 -5.08)"/><path class="cls-1" d="M223.49,23.64c4.29-3.39,3.16-10,2.51-10.18s-8.14-1.28-2,6.26c.54.67-3.67,6.11-9.69,3.54-1.87-.79-3.3-2.86-5.25-6.78-1.55-3.1-3.72-7.44-7.42-9.65-4.93-2.94-12.45-2.06-15.92,1.83-1.46,1.63-3.58,4.76-2.52,6.57,0,0,.72,2.16,2.4,2.3.68.06,5.91,1.19,1.82-4.86-1.81-2.67,4.28-3.5,6.94-3.32,2.15.14,7.64.67,9.65,6.43C208,27.09,215.67,29.8,223.49,23.64Z" transform="translate(-14.54 -5.08)"/><path class="cls-1" d="M416.81,230.77c3,4.54,9.67,3.94,9.94,3.31s1.93-8-6.08-2.49c-.71.49-5.8-4.14-2.76-9.94.94-1.79,3.12-3.05,7.18-4.69,3.22-1.29,7.71-3.11,10.22-6.63,3.32-4.67,3.05-12.24-.56-16-1.51-1.58-4.46-3.94-6.35-3,0,0-2.2.55-2.48,2.21-.11.68-1.66,5.8,4.69,2.21,2.82-1.59,3.15,4.54,2.76,7.18-.31,2.13-1.28,7.57-7.17,9.11C414.6,215,411.29,222.48,416.81,230.77Z" transform="translate(-14.54 -5.08)"/><path class="cls-1" d="M418.41,222.56c5.61,10.16,11.74,7.13,12.3,2.7s1.56-8.72,1.56-8.72l-5.43,10.38Z" transform="translate(-14.54 -5.08)"/><path class="cls-1" d="M429,248.37c-6.8-9.41-12.52-5.65-12.54-1.19S416,256,416,256l4.14-11Z" transform="translate(-14.54 -5.08)"/><path class="cls-1" d="M410.85,272.23c2.52,4.84,9.19,5,9.52,4.36s2.79-7.75-5.77-3.12c-.75.41-5.32-4.75-1.67-10.18,1.13-1.69,3.42-2.71,7.64-3.9,3.34-.94,8-2.25,10.87-5.48,3.81-4.29,4.36-11.85,1.18-16-1.33-1.74-4-4.4-6-3.71,0,0-2.26.31-2.71,1.93-.19.67-2.27,5.59,4.43,2.7,3-1.27,2.64,4.86,2,7.44-.55,2.09-2.09,7.38-8.12,8.28C410.35,256.34,406.25,263.39,410.85,272.23Z" transform="translate(-14.54 -5.08)"/><path class="cls-1" d="M413.33,264.24c4.48,10.71,10.9,8.35,11.94,4s2.48-8.5,2.48-8.5l-6.52,9.73Z" transform="translate(-14.54 -5.08)"/><path class="cls-1" d="M417.93,290.87c-4.56-10.68-11-8.28-12-3.93s-2.42,8.52-2.42,8.52l6.44-9.78Z" transform="translate(-14.54 -5.08)"/><path class="cls-1" d="M395,310.14c1.39,5.28,7.87,6.87,8.33,6.35s4.42-6.94-4.94-4.32c-.83.24-4.14-5.79.61-10.29,1.47-1.4,3.94-1.89,8.31-2.12,3.46-.18,8.31-.44,11.81-2.95,4.66-3.35,6.86-10.6,4.67-15.33-.91-2-2.94-5.18-5-4.93,0,0-2.27-.2-3.07,1.28-.32.61-3.44,4.95,3.73,3.61,3.18-.59,1.5,5.32.28,7.69-1,1.91-3.66,6.74-9.74,6.29C398,294.53,392.43,300.51,395,310.14Z" transform="translate(-14.54 -5.08)"/><path class="cls-1" d="M399.15,302.89c2,11.43,8.79,10.55,10.76,6.55s4.3-7.75,4.3-7.75l-8.51,8.06Z" transform="translate(-14.54 -5.08)"/><path class="cls-1" d="M398.63,330c-1.24-11.54-8.06-11.12-10.3-7.26s-4.8,7.44-4.8,7.44l9-7.47Z" transform="translate(-14.54 -5.08)"/><path class="cls-1" d="M371,341.73c-.21,5.46,5.52,8.87,6.1,8.51s6.27-5.35-3.46-5.57c-.86,0-2.26-6.76,3.6-9.67,1.82-.9,4.32-.65,8.57.41,3.36.84,8.07,2,12.16.63,5.43-1.83,9.65-8.13,8.95-13.29-.3-2.17-1.3-5.81-3.36-6.19,0,0-2.11-.85-3.31.33-.49.49-4.74,3.73,2.51,4.55,3.21.36-.12,5.52-2,7.43-1.51,1.54-5.48,5.37-11.16,3.16C378.49,327.69,371.43,331.78,371,341.73Z" transform="translate(-14.54 -5.08)"/><path class="cls-1" d="M377.16,336c-1.43,11.52,5.32,12.66,8.37,9.41s6.37-6.15,6.37-6.15l-10.48,5.22Z" transform="translate(-14.54 -5.08)"/><path class="cls-1" d="M370.62,362.48c.77-11.59-6-12.35-8.89-8.93s-6,6.5-6,6.5l10.18-5.8Z" transform="translate(-14.54 -5.08)"/><path class="cls-1" d="M341.42,369.25c-1.15,5.34,3.91,9.69,4.55,9.44s7.09-4.19-2.45-6.09c-.84-.17-1.06-7.05,5.21-8.9,1.95-.58,4.36.1,8.37,1.88,3.17,1.41,7.6,3.37,11.87,2.72,5.66-.87,10.91-6.34,11.11-11.55.08-2.19-.28-5.95-2.24-6.67,0,0-1.94-1.2-3.32-.25-.57.39-5.31,2.85,1.68,4.91,3.1.91-1.06,5.42-3.23,7-1.75,1.26-6.32,4.35-11.53,1.19C351.18,356.7,343.52,359.52,341.42,369.25Z" transform="translate(-14.54 -5.08)"/><path class="cls-1" d="M348.43,364.68c-3.39,11.11,3.06,13.39,6.63,10.71s7.34-4.95,7.34-4.95l-11.23,3.33Z" transform="translate(-14.54 -5.08)"/><path class="cls-1" d="M338.25,389.62c2.73-11.29-3.83-13.19-7.24-10.31s-7,5.37-7,5.37l11-4Z" transform="translate(-14.54 -5.08)"/><path class="cls-1" d="M308.32,391.31c-2.05,5.07,2.19,10.22,2.87,10.08s7.7-2.92-1.37-6.42c-.81-.31.15-7.12,6.65-7.88,2-.24,4.28.85,7.92,3.28,2.89,1.93,6.92,4.62,11.24,4.7,5.73.11,11.83-4.38,12.91-9.48.46-2.14.74-5.91-1.07-7,0,0-1.7-1.51-3.23-.81-.62.29-5.72,1.9.83,5.13,2.9,1.42-2,5.16-4.38,6.32-1.94,1-7,3.21-11.57-.79C320.07,380.61,312.05,382.08,308.32,391.31Z" transform="translate(-14.54 -5.08)"/><path class="cls-1" d="M316,388c-5.24,10.36.72,13.71,4.7,11.68s8.07-3.63,8.07-3.63l-11.63,1.37Z" transform="translate(-14.54 -5.08)"/><path class="cls-1" d="M298.74,408.8c5.16-10.4-.83-13.71-4.79-11.65s-8,3.7-8,3.7l11.62-1.46Z" transform="translate(-14.54 -5.08)"/><path class="cls-1" d="M269.18,403.86c-3.11,4.5-.11,10.45.58,10.47s8.15-1.15.07-6.57c-.71-.47,1.72-6.91,8.23-6.22,2,.21,4,1.77,7,4.95,2.38,2.51,5.72,6,9.92,7.06,5.56,1.37,12.5-1.67,14.68-6.41.92-2,2-5.6.49-7,0,0-1.32-1.85-3-1.5-.67.15-6,.59-.32,5.18,2.51,2-3.07,4.6-5.66,5.21-2.1.49-7.51,1.59-11.12-3.33C283,396,274.85,395.68,269.18,403.86Z" transform="translate(-14.54 -5.08)"/><path class="cls-1" d="M277.41,402.33c-7.39,9-2.32,13.54,2,12.44S288.1,413,288.1,413l-11.65-1.24Z" transform="translate(-14.54 -5.08)"/><path class="cls-1" d="M256.44,419.56c8-8.44,3.22-13.35-1.17-12.54s-8.78,1.18-8.78,1.18l11.54,2Z" transform="translate(-14.54 -5.08)"/><path class="cls-1" d="M229.62,406.19c-4.29,3.38-3.16,10-2.51,10.17s8.13,1.29,2-6.25c-.54-.67,3.67-6.11,9.69-3.55,1.87.8,3.29,2.86,5.25,6.78,1.55,3.11,3.71,7.45,7.42,9.66,4.92,2.94,12.45,2.06,15.92-1.83,1.46-1.63,3.57-4.76,2.52-6.57,0,0-.73-2.16-2.4-2.3-.69-.06-5.91-1.19-1.83,4.85,1.81,2.68-4.27,3.5-6.93,3.33-2.15-.15-7.65-.68-9.66-6.43C245.13,402.73,237.43,400,229.62,406.19Z" transform="translate(-14.54 -5.08)"/><path class="cls-1" d="M234.19,422c8.62-7.78,4.27-13.05-.17-12.59s-8.84.47-8.84.47l11.34,2.92Z" transform="translate(-14.54 -5.08)"/><path class="cls-1" d="M208.52,406.5c-4.55,3-4,9.67-3.31,9.94s8,1.93,2.48-6.07c-.49-.71,4.14-5.8,9.94-2.77,1.8.95,3.06,3.12,4.69,7.18,1.3,3.22,3.11,7.72,6.63,10.22,4.67,3.32,12.25,3.05,16-.55,1.58-1.51,3.94-4.47,3-6.35,0,0-.55-2.21-2.21-2.49-.68-.11-5.79-1.66-2.2,4.7,1.59,2.81-4.55,3.14-7.18,2.76-2.14-.32-7.57-1.29-9.12-7.18C224.26,404.29,216.8,401,208.52,406.5Z" transform="translate(-14.54 -5.08)"/><path class="cls-1" d="M216.73,408.1c-10.16,5.61-7.13,11.74-2.7,12.31s8.71,1.55,8.71,1.55l-10.38-5.43Z" transform="translate(-14.54 -5.08)"/><path class="cls-1" d="M190.91,418.69c9.41-6.8,5.66-12.52,1.2-12.54s-8.85-.48-8.85-.48l11,4.13Z" transform="translate(-14.54 -5.08)"/><path class="cls-1" d="M167.06,400.54c-4.85,2.52-5,9.19-4.37,9.53s7.76,2.78,3.13-5.78c-.41-.75,4.74-5.31,10.18-1.67,1.69,1.13,2.7,3.43,3.89,7.65.94,3.33,2.26,8,5.49,10.87,4.28,3.8,11.84,4.35,16,1.18,1.74-1.34,4.4-4,3.7-6,0,0-.31-2.26-1.93-2.71-.66-.19-5.58-2.27-2.7,4.43,1.28,3-4.85,2.64-7.43,2-2.09-.54-7.39-2.09-8.29-8.12C183,400,175.89,395.94,167.06,400.54Z" transform="translate(-14.54 -5.08)"/><path class="cls-1" d="M175.05,403c-10.71,4.48-8.36,10.9-4,11.94s8.5,2.49,8.5,2.49l-9.73-6.52Z" transform="translate(-14.54 -5.08)"/><path class="cls-1" d="M148.42,407.62c10.67-4.56,8.27-11,3.92-12s-8.52-2.42-8.52-2.42l9.79,6.45Z" transform="translate(-14.54 -5.08)"/><path class="cls-1" d="M129.15,384.66c-5.29,1.4-6.87,7.87-6.36,8.33s7,4.43,4.32-4.94c-.23-.83,5.8-4.14,10.3.61,1.4,1.48,1.88,3.94,2.11,8.31.19,3.47.44,8.31,3,11.82,3.34,4.65,10.59,6.85,15.33,4.67,2-.92,5.18-2.95,4.93-5,0,0,.19-2.27-1.28-3.06-.61-.33-5-3.45-3.62,3.72.6,3.18-5.31,1.51-7.68.29-1.92-1-6.74-3.67-6.29-9.75C144.75,387.68,138.77,382.12,129.15,384.66Z" transform="translate(-14.54 -5.08)"/><path class="cls-1" d="M136.4,388.84c-11.44,2-10.56,8.79-6.55,10.76s7.74,4.3,7.74,4.3l-8.06-8.5Z" transform="translate(-14.54 -5.08)"/><path class="cls-1" d="M109.27,388.32c11.54-1.24,11.12-8.06,7.25-10.29s-7.44-4.81-7.44-4.81l7.47,9Z" transform="translate(-14.54 -5.08)"/><path class="cls-1" d="M97.56,360.73c-5.46-.21-8.88,5.52-8.52,6.11s5.35,6.26,5.58-3.46c0-.86,6.75-2.27,9.67,3.59.9,1.82.64,4.32-.41,8.57-.84,3.36-2,8.07-.63,12.16,1.83,5.43,8.12,9.65,13.29,8.95,2.17-.29,5.81-1.3,6.18-3.36,0,0,.85-2.11-.33-3.31-.48-.49-3.72-4.74-4.54,2.51-.36,3.21-5.53-.12-7.43-2-1.55-1.51-5.38-5.48-3.17-11.16C111.6,368.18,107.5,361.12,97.56,360.73Z" transform="translate(-14.54 -5.08)"/><path class="cls-1" d="M103.27,366.85c-11.53-1.42-12.67,5.32-9.41,8.37S100,381.6,100,381.6l-5.21-10.49Z" transform="translate(-14.54 -5.08)"/><path class="cls-1" d="M76.81,360.31c11.58.77,12.35-6,8.92-8.89s-6.49-6-6.49-6L85,355.58Z" transform="translate(-14.54 -5.08)"/><path class="cls-1" d="M70,331.12c-5.34-1.16-9.69,3.9-9.44,4.54s4.18,7.09,6.09-2.45c.16-.84,7-1.06,8.9,5.21.58,1.95-.11,4.37-1.88,8.37-1.41,3.17-3.38,7.6-2.72,11.87.87,5.67,6.34,10.91,11.55,11.11,2.18.08,5.95-.28,6.67-2.24,0,0,1.2-1.94.24-3.32-.39-.57-2.84-5.31-4.9,1.69-.91,3.1-5.43-1.07-7-3.23-1.26-1.75-4.35-6.33-1.2-11.54C82.58,340.87,79.77,333.21,70,331.12Z" transform="translate(-14.54 -5.08)"/><path class="cls-1" d="M74.6,338.12c-11.1-3.38-13.39,3.06-10.71,6.63s5,7.34,5,7.34l-3.33-11.23Z" transform="translate(-14.54 -5.08)"/><path class="cls-1" d="M49.67,327.94C61,330.67,62.86,324.11,60,320.7s-5.38-7-5.38-7l4,11Z" transform="translate(-14.54 -5.08)"/><path class="cls-1" d="M48,298c-5.06-2-10.21,2.2-10.07,2.87s2.91,7.7,6.41-1.37c.31-.8,7.13.15,7.89,6.65.23,2-.85,4.28-3.28,7.93C47,317,44.3,321,44.21,325.32c-.11,5.73,4.39,11.83,9.49,12.91,2.14.46,5.91.74,6.95-1.07,0,0,1.52-1.7.81-3.22-.29-.63-1.9-5.73-5.12.82-1.43,2.9-5.16-2-6.33-4.37-.94-1.94-3.2-7,.79-11.58C58.67,309.77,57.21,301.74,48,298Z" transform="translate(-14.54 -5.08)"/><path class="cls-1" d="M51.28,305.7c-10.36-5.23-13.72.73-11.69,4.7s3.63,8.08,3.63,8.08l-1.36-11.64Z" transform="translate(-14.54 -5.08)"/><path class="cls-1" d="M30.48,288.44c10.41,5.15,13.71-.83,11.65-4.79s-3.69-8-3.69-8l1.45,11.62Z" transform="translate(-14.54 -5.08)"/><path class="cls-1" d="M35.42,258.87c-4.49-3.11-10.45-.11-10.46.58s1.15,8.16,6.56.08c.48-.72,6.92,1.71,6.23,8.22-.22,2-1.77,4-5,7-2.51,2.39-6,5.73-7.06,9.92-1.37,5.57,1.67,12.51,6.4,14.69,2,.91,5.61,2,7,.48,0,0,1.85-1.32,1.5-3-.15-.68-.6-6-5.18-.33-2,2.51-4.6-3.07-5.21-5.66-.49-2.1-1.59-7.51,3.32-11.11C43.27,272.69,43.6,264.54,35.42,258.87Z" transform="translate(-14.54 -5.08)"/><path class="cls-1" d="M37,267.1c-9-7.39-13.54-2.31-12.43,2s1.76,8.68,1.76,8.68l1.23-11.65Z" transform="translate(-14.54 -5.08)"/><path class="cls-1" d="M19.72,246.13c8.44,8,13.36,3.22,12.55-1.17s-1.18-8.77-1.18-8.77l-2,11.54Z" transform="translate(-14.54 -5.08)"/><path class="cls-1" d="M33.1,219.31c-3.39-4.29-10-3.16-10.18-2.51s-1.28,8.14,6.26,2c.66-.54,6.11,3.67,3.54,9.69-.79,1.87-2.86,3.3-6.78,5.25-3.1,1.55-7.44,3.72-9.65,7.42-2.94,4.93-2.07,12.45,1.82,15.92,1.64,1.46,4.77,3.58,6.58,2.52,0,0,2.16-.72,2.3-2.4.06-.68,1.19-5.91-4.86-1.82-2.67,1.81-3.5-4.28-3.32-6.94.14-2.15.67-7.65,6.43-9.65C36.55,234.82,39.26,227.13,33.1,219.31Z" transform="translate(-14.54 -5.08)"/></svg>