<svg id="Layer_1" data-name="Layer 1" xmlns="http://www.w3.org/2000/svg" xmlns:xlink="http://www.w3.org/1999/xlink" viewBox="0 0 468.56 399.8"><defs><style>.cls-1{fill:url(#linear-gradient);}.cls-2{fill:url(#linear-gradient-2);}.cls-3{fill:url(#linear-gradient-3);}.cls-4{fill:url(#linear-gradient-4);}.cls-5{fill:url(#linear-gradient-5);}.cls-6{fill:url(#linear-gradient-6);}.cls-7{fill:url(#linear-gradient-7);}.cls-8{fill:url(#linear-gradient-8);}.cls-9{fill:url(#linear-gradient-9);}.cls-10{fill:url(#radial-gradient);}.cls-11{fill:url(#radial-gradient-2);}.cls-12{fill:url(#linear-gradient-10);}.cls-13{fill:url(#linear-gradient-11);}.cls-14{fill:url(#linear-gradient-12);}</style><linearGradient id="linear-gradient" x1="72.64" y1="289.37" x2="219.8" y2="390.64" gradientUnits="userSpaceOnUse"><stop offset="0.05" stop-color="aqua"/><stop offset="0.72" stop-color="blue"/></linearGradient><linearGradient id="linear-gradient-2" y1="305.8" x2="43" y2="305.8" gradientUnits="userSpaceOnUse"><stop offset="0" stop-color="aqua"/><stop offset="1" stop-color="blue"/></linearGradient><linearGradient id="linear-gradient-3" y1="227.3" x2="198" y2="227.3" xlink:href="#linear-gradient-2"/><linearGradient id="linear-gradient-4" x1="535.64" y1="326.61" x2="635.95" y2="395.64" gradientTransform="translate(352.22 8.35)" xlink:href="#linear-gradient"/><linearGradient id="linear-gradient-5" x1="486.13" y1="337.82" x2="515.43" y2="337.82" gradientTransform="translate(826.67 -413.54) rotate(100.55)" xlink:href="#linear-gradient-2"/><linearGradient id="linear-gradient-6" x1="486.13" y1="284.31" x2="621.08" y2="284.31" gradientTransform="translate(826.67 -413.54) rotate(100.55)" xlink:href="#linear-gradient-2"/><linearGradient id="linear-gradient-7" x1="604.78" y1="521.62" x2="705.08" y2="590.65" gradientTransform="translate(78.72 -154.38)" gradientUnits="userSpaceOnUse"><stop offset="0.05" stop-color="aqua"/><stop offset="0.72" stop-color="#f0f"/></linearGradient><linearGradient id="linear-gradient-8" x1="555.26" y1="532.82" x2="584.57" y2="532.82" gradientTransform="translate(826.67 -413.54) rotate(100.55)" gradientUnits="userSpaceOnUse"><stop offset="0" stop-color="aqua"/><stop offset="1" stop-color="#f0f"/></linearGradient><linearGradient id="linear-gradient-9" x1="555.26" y1="479.31" x2="690.22" y2="479.31" xlink:href="#linear-gradient-8"/><radialGradient id="radial-gradient" cx="236" cy="321.8" fx="220.799259487855" r="33.07" gradientUnits="userSpaceOnUse"><stop offset="0.06" stop-color="aqua"/><stop offset="0.62" stop-color="blue"/><stop offset="0.84" stop-color="#1b1464"/></radialGradient><radialGradient id="radial-gradient-2" cx="716.1" cy="448.1" fx="698.1664112355452" fy="441.72216546351876" r="33.07" gradientTransform="translate(-342.86 -214.46) scale(1 0.91)" gradientUnits="userSpaceOnUse"><stop offset="0.01" stop-color="#fff"/><stop offset="0.55" stop-color="#f0f"/><stop offset="0.82" stop-color="#9e005d"/></radialGradient><linearGradient id="linear-gradient-10" x1="322.76" y1="229.1" x2="257.49" y2="289.63" xlink:href="#linear-gradient"/><linearGradient id="linear-gradient-11" x1="339.86" y1="224.35" x2="286.84" y2="302.28" xlink:href="#linear-gradient"/><linearGradient id="linear-gradient-12" x1="257.58" y1="253.4" x2="380.22" y2="189.71" xlink:href="#linear-gradient"/></defs><rect class="cls-1" x="43" y="244.8" width="155" height="155"/><polygon class="cls-2" points="43 399.8 2 336.8 0 211.8 43 244.8 43 399.8"/><polygon class="cls-3" points="43 244.8 0 211.8 142 209.8 198 244.8 43 244.8"/><rect class="cls-4" x="867.66" y="304.59" width="105.65" height="105.65" transform="translate(899.36 -758.28) rotate(100.55)"/><polygon class="cls-5" points="337.22 19.61 384.55 0 468.56 14.26 441.08 38.95 337.22 19.61"/><polygon class="cls-6" points="441.08 38.95 468.56 14.26 452.18 109.66 421.74 142.82 441.08 38.95"/><rect class="cls-7" x="663.29" y="336.86" width="105.65" height="105.65" transform="translate(689.31 -519.19) rotate(100.55)"/><polygon class="cls-8" points="132.86 51.89 180.19 32.27 264.2 46.53 236.72 71.23 132.86 51.89"/><polygon class="cls-9" points="236.72 71.23 264.2 46.53 247.82 141.93 217.38 175.09 236.72 71.23"/><circle class="cls-10" cx="236" cy="321.8" r="24"/><circle class="cls-11" cx="373.24" cy="194.92" r="24"/><polygon class="cls-12" points="310 288.8 258 281.8 265 234.8 316 237.8 310 288.8"/><polygon class="cls-13" points="316 237.8 330 228.8 325 267.8 310 288.8 316 237.8"/><polygon class="cls-14" points="330 228.8 316 237.8 265 234.8 283 226.8 330 228.8"/></svg>