<svg id="Layer_1" data-name="Layer 1" xmlns="http://www.w3.org/2000/svg" viewBox="0 0 281.96 279.22"><defs><style>.cls-1{fill:#a2006d;}.cls-2{fill:#d8ffe9;}</style></defs><path class="cls-1" d="M240.73,113.34c3-2,2.61-6.4,2.19-6.58s-5.29-1.27-1.64,4c.32.47-2.74,3.83-6.58,1.83-1.19-.63-2-2.06-3.1-4.75-.86-2.13-2-5.1-4.38-6.76-3.09-2.19-8.1-2-10.59.37-1,1-2.61,3-2,4.2,0,0,.37,1.46,1.46,1.64.45.08,3.83,1.1,1.46-3.1-1-1.86,3-2.09,4.75-1.83,1.41.21,5,.85,6,4.75C230.32,114.8,235.25,117,240.73,113.34Z" transform="translate(-87.04 -98.58)"/><path class="cls-1" d="M235.3,112.28c6.72-3.71,4.72-7.77,1.79-8.14s-5.77-1-5.77-1l6.87,3.6Z" transform="translate(-87.04 -98.58)"/><path class="cls-1" d="M252.37,105.27c-6.22,4.5-3.74,8.28-.79,8.3s5.85.32,5.85.32l-7.25-2.74Z" transform="translate(-87.04 -98.58)"/><path class="cls-1" d="M268.14,117.28c3.21-1.67,3.29-6.08,2.89-6.3s-5.12-1.84-2.07,3.81c.28.5-3.13,3.52-6.73,1.11-1.11-.75-1.78-2.26-2.57-5.05-.62-2.21-1.49-5.3-3.63-7.19-2.83-2.52-7.83-2.88-10.57-.78-1.14.88-2.91,2.65-2.45,4,0,0,.21,1.49,1.28,1.79.44.12,3.69,1.5,1.79-2.93-.85-2,3.21-1.75,4.91-1.3,1.38.35,4.89,1.38,5.48,5.37C257.64,117.61,262.3,120.32,268.14,117.28Z" transform="translate(-87.04 -98.58)"/><path class="cls-1" d="M262.86,115.64c7.08-3,5.53-7.21,2.66-7.9s-5.62-1.64-5.62-1.64l6.43,4.31Z" transform="translate(-87.04 -98.58)"/><path class="cls-1" d="M280.47,112.6c-7.06,3-5.47,7.25-2.59,7.91s5.63,1.6,5.63,1.6L277,117.85Z" transform="translate(-87.04 -98.58)"/><path class="cls-1" d="M293.21,127.78c3.5-.93,4.55-5.21,4.21-5.51s-4.6-2.93-2.86,3.27c.16.54-3.83,2.73-6.81-.41-.92-1-1.24-2.6-1.4-5.5-.12-2.28-.29-5.49-2-7.81-2.21-3.07-7-4.53-10.14-3.08-1.31.6-3.42,1.94-3.26,3.32,0,0-.13,1.5.85,2,.4.21,3.27,2.27,2.39-2.47-.39-2.1,3.52-1,5.08-.19,1.27.66,4.46,2.43,4.16,6.45C282.9,125.78,286.85,129.45,293.21,127.78Z" transform="translate(-87.04 -98.58)"/><path class="cls-1" d="M288.42,125c7.56-1.33,7-5.81,4.33-7.11s-5.12-2.84-5.12-2.84l5.33,5.62Z" transform="translate(-87.04 -98.58)"/><path class="cls-1" d="M306.36,125.36c-7.63.81-7.35,5.33-4.8,6.8s4.92,3.18,4.92,3.18l-4.94-6Z" transform="translate(-87.04 -98.58)"/><path class="cls-1" d="M314.1,143.6c3.62.14,5.87-3.65,5.64-4s-3.54-4.14-3.69,2.29c0,.57-4.47,1.5-6.4-2.38-.59-1.2-.42-2.85.28-5.66.55-2.23,1.33-5.34.41-8-1.21-3.59-5.37-6.39-8.79-5.92-1.43.19-3.84.86-4.09,2.22,0,0-.56,1.4.22,2.19.32.32,2.46,3.14,3-1.66.24-2.12,3.65.08,4.91,1.31,1,1,3.55,3.62,2.09,7.38C304.82,138.68,307.53,143.34,314.1,143.6Z" transform="translate(-87.04 -98.58)"/><path class="cls-1" d="M310.33,139.56c7.62.94,8.37-3.52,6.22-5.54s-4.06-4.22-4.06-4.22l3.45,6.94Z" transform="translate(-87.04 -98.58)"/><path class="cls-1" d="M327.82,143.88c-7.66-.51-8.16,4-5.9,5.88s4.3,4,4.3,4L322.38,147Z" transform="translate(-87.04 -98.58)"/><path class="cls-1" d="M332.3,163.18c3.53.77,6.41-2.58,6.25-3s-2.77-4.69-4,1.62c-.11.56-4.66.7-5.89-3.45-.38-1.29.07-2.88,1.25-5.53.93-2.1,2.23-5,1.79-7.85-.57-3.75-4.19-7.21-7.63-7.35-1.45-.05-3.94.19-4.42,1.49,0,0-.79,1.28-.16,2.19.26.37,1.89,3.51,3.25-1.11.6-2.05,3.58.7,4.61,2.13.84,1.16,2.88,4.18.79,7.63C324,156.73,325.87,161.8,332.3,163.18Z" transform="translate(-87.04 -98.58)"/><path class="cls-1" d="M329.28,158.55c7.34,2.24,8.86-2,7.09-4.38s-3.28-4.85-3.28-4.85l2.2,7.42Z" transform="translate(-87.04 -98.58)"/><path class="cls-1" d="M345.77,165.29c-7.46-1.81-8.72,2.53-6.82,4.78s3.56,4.66,3.56,4.66l-2.63-7.29Z" transform="translate(-87.04 -98.58)"/><path class="cls-1" d="M346.89,185.07c3.35,1.36,6.76-1.45,6.67-1.89s-1.93-5.1-4.25.91c-.2.53-4.71-.1-5.21-4.4-.16-1.34.56-2.83,2.17-5.24,1.27-1.91,3.05-4.58,3.11-7.43.07-3.79-2.9-7.82-6.27-8.54-1.42-.3-3.91-.49-4.6.71,0,0-1,1.12-.54,2.13.19.41,1.26,3.78,3.39-.54.94-1.92,3.41,1.3,4.18,2.89.63,1.28,2.12,4.61-.52,7.65C339.82,177.3,340.79,182.61,346.89,185.07Z" transform="translate(-87.04 -98.58)"/><path class="cls-1" d="M344.71,180c6.85,3.46,9.07-.48,7.72-3.11s-2.4-5.34-2.4-5.34l.91,7.7Z" transform="translate(-87.04 -98.58)"/><path class="cls-1" d="M358.46,191.41c-6.88-3.41-9.07.55-7.71,3.16s2.45,5.33,2.45,5.33l-1-7.69Z" transform="translate(-87.04 -98.58)"/><path class="cls-1" d="M355.19,211c3,2,6.91.07,6.92-.39s-.76-5.39-4.34,0c-.32.48-4.57-1.13-4.12-5.44.15-1.33,1.18-2.63,3.28-4.63,1.66-1.58,4-3.79,4.67-6.56.9-3.68-1.11-8.27-4.24-9.71-1.32-.61-3.71-1.34-4.64-.32,0,0-1.23.87-1,2,.1.45.4,4,3.43.22,1.34-1.67,3,2,3.44,3.74.33,1.39,1.06,5-2.19,7.35C350,201.82,349.78,207.21,355.19,211Z" transform="translate(-87.04 -98.58)"/><path class="cls-1" d="M354.18,205.52c5.92,4.88,8.95,1.53,8.22-1.33s-1.16-5.74-1.16-5.74l-.82,7.7Z" transform="translate(-87.04 -98.58)"/><path class="cls-1" d="M365.57,219.38c-5.58-5.27-8.83-2.13-8.29.77s.78,5.81.78,5.81l1.33-7.63Z" transform="translate(-87.04 -98.58)"/><path class="cls-1" d="M356.73,237.12c2.24,2.83,6.58,2.09,6.73,1.66s.85-5.38-4.14-1.32c-.44.36-4-2.42-2.34-6.41.52-1.23,1.89-2.18,4.48-3.47,2.05-1,4.92-2.45,6.39-4.91,1.94-3.25,1.36-8.23-1.21-10.52-1.08-1-3.15-2.37-4.35-1.67,0,0-1.43.48-1.52,1.59,0,.45-.79,3.91,3.21,1.21,1.77-1.2,2.32,2.82,2.2,4.58-.1,1.42-.45,5.06-4.25,6.39C354.44,226.86,352.65,232,356.73,237.12Z" transform="translate(-87.04 -98.58)"/><path class="cls-1" d="M101.43,226.85c-2-3-6.4-2.61-6.57-2.19s-1.28,5.3,4,1.64c.47-.32,3.84,2.74,1.83,6.58-.62,1.19-2.06,2-4.75,3.1-2.13.86-5.1,2.06-6.75,4.38-2.2,3.09-2,8.1.36,10.59,1,1.05,3,2.61,4.2,2,0,0,1.46-.36,1.64-1.46.08-.45,1.1-3.83-3.1-1.46-1.86,1.05-2.08-3-1.83-4.75.21-1.41.85-5,4.75-6C102.89,237.26,105.08,232.33,101.43,226.85Z" transform="translate(-87.04 -98.58)"/><path class="cls-1" d="M100.37,232.28c-3.71-6.72-7.76-4.71-8.14-1.79s-1,5.77-1,5.77l3.59-6.86Z" transform="translate(-87.04 -98.58)"/><path class="cls-1" d="M93.37,215.21c4.49,6.22,8.27,3.74,8.29.79s.32-5.85.32-5.85l-2.73,7.25Z" transform="translate(-87.04 -98.58)"/><path class="cls-1" d="M105.37,199.44c-1.67-3.21-6.08-3.29-6.3-2.89s-1.84,5.13,3.82,2.07c.5-.27,3.51,3.13,1.1,6.73-.74,1.11-2.26,1.79-5,2.57-2.21.62-5.29,1.49-7.19,3.63-2.52,2.83-2.88,7.83-.78,10.57.88,1.15,2.65,2.91,4,2.45,0,0,1.49-.21,1.79-1.28.12-.44,1.5-3.69-2.93-1.79-2,.85-1.74-3.21-1.3-4.91.36-1.38,1.38-4.88,5.37-5.48C105.7,209.94,108.41,205.28,105.37,199.44Z" transform="translate(-87.04 -98.58)"/><path class="cls-1" d="M103.73,204.72c-3-7.08-7.21-5.53-7.9-2.66s-1.64,5.63-1.64,5.63l4.31-6.44Z" transform="translate(-87.04 -98.58)"/><path class="cls-1" d="M100.69,187.11c3,7.06,7.25,5.47,7.91,2.6s1.6-5.64,1.6-5.64l-4.26,6.47Z" transform="translate(-87.04 -98.58)"/><path class="cls-1" d="M115.87,174.37c-.92-3.5-5.21-4.55-5.51-4.21s-2.92,4.6,3.27,2.86c.55-.15,2.74,3.83-.41,6.81-1,.92-2.6,1.24-5.49,1.4-2.29.12-5.49.29-7.81,2-3.08,2.21-4.54,7-3.09,10.14.61,1.31,2,3.42,3.32,3.26,0,0,1.5.13,2-.85.22-.4,2.28-3.27-2.46-2.39-2.11.39-1-3.51-.19-5.08.65-1.27,2.42-4.46,6.44-4.16C113.88,184.69,117.55,180.73,115.87,174.37Z" transform="translate(-87.04 -98.58)"/><path class="cls-1" d="M113.11,179.16c-1.33-7.56-5.82-7-7.12-4.33s-2.84,5.12-2.84,5.12l5.62-5.33Z" transform="translate(-87.04 -98.58)"/><path class="cls-1" d="M113.45,161.22c.82,7.63,5.33,7.35,6.81,4.8s3.18-4.92,3.18-4.92l-6,4.94Z" transform="translate(-87.04 -98.58)"/><path class="cls-1" d="M131.69,153.48c.14-3.61-3.64-5.87-4-5.63s-4.15,3.53,2.28,3.68c.57,0,1.5,4.47-2.37,6.4-1.21.59-2.86.43-5.67-.27-2.22-.56-5.34-1.33-8-.42-3.59,1.21-6.38,5.37-5.92,8.79.2,1.43.86,3.84,2.22,4.09,0,0,1.4.56,2.19-.22.33-.32,3.14-2.46-1.66-3-2.12-.24.08-3.66,1.31-4.92,1-1,3.63-3.55,7.38-2.09C126.77,162.76,131.44,160.06,131.69,153.48Z" transform="translate(-87.04 -98.58)"/><path class="cls-1" d="M127.65,157.25c.94-7.62-3.52-8.37-5.54-6.22s-4.21,4.06-4.21,4.06l6.93-3.44Z" transform="translate(-87.04 -98.58)"/><path class="cls-1" d="M132,139.76c-.51,7.66,4,8.16,5.88,5.9s4-4.3,4-4.3l-6.73,3.84Z" transform="translate(-87.04 -98.58)"/><path class="cls-1" d="M151.28,135.28c.76-3.53-2.58-6.41-3-6.24s-4.69,2.77,1.62,4c.56.11.71,4.66-3.45,5.89-1.28.38-2.88-.07-5.53-1.24-2.09-.93-5-2.23-7.85-1.8-3.74.57-7.21,4.19-7.34,7.63-.06,1.45.18,3.94,1.48,4.42,0,0,1.28.79,2.19.16.38-.26,3.52-1.88-1.11-3.25-2-.6.7-3.58,2.13-4.61,1.16-.83,4.19-2.88,7.63-.79C144.83,143.57,149.89,141.71,151.28,135.28Z" transform="translate(-87.04 -98.58)"/><path class="cls-1" d="M146.64,138.3c2.24-7.34-2-8.86-4.38-7.08s-4.85,3.27-4.85,3.27l7.43-2.2Z" transform="translate(-87.04 -98.58)"/><path class="cls-1" d="M153.38,121.81c-1.81,7.46,2.53,8.72,4.78,6.82s4.66-3.56,4.66-3.56l-7.29,2.63Z" transform="translate(-87.04 -98.58)"/><path class="cls-1" d="M173.17,120.69c1.35-3.35-1.45-6.75-1.9-6.66s-5.09,1.93.91,4.24c.53.2-.1,4.71-4.4,5.21-1.33.16-2.83-.56-5.24-2.17-1.91-1.27-4.57-3-7.43-3.11-3.79-.07-7.82,2.9-8.54,6.27-.3,1.42-.49,3.91.71,4.6,0,0,1.12,1,2.13.54.42-.19,3.79-1.26-.54-3.39-1.92-.94,1.31-3.41,2.89-4.18,1.28-.63,4.61-2.12,7.65.52C165.39,127.76,170.7,126.79,173.17,120.69Z" transform="translate(-87.04 -98.58)"/><path class="cls-1" d="M168.08,122.88c3.47-6.86-.48-9.08-3.1-7.73s-5.35,2.4-5.35,2.4l7.7-.9Z" transform="translate(-87.04 -98.58)"/><path class="cls-1" d="M179.5,109.12c-3.41,6.88.55,9.07,3.17,7.71s5.32-2.44,5.32-2.44l-7.69,1Z" transform="translate(-87.04 -98.58)"/><path class="cls-1" d="M199.05,112.39c2.06-3,.07-6.91-.38-6.92s-5.4.76,0,4.34c.47.32-1.14,4.57-5.44,4.12-1.34-.14-2.64-1.17-4.64-3.27-1.57-1.67-3.78-4-6.56-4.67-3.68-.91-8.27,1.1-9.71,4.23-.6,1.32-1.34,3.71-.32,4.65,0,0,.88,1.22,2,1,.45-.1,4-.4.22-3.43-1.66-1.34,2-3,3.74-3.44,1.39-.33,5-1,7.35,2.2C189.91,117.58,195.3,117.8,199.05,112.39Z" transform="translate(-87.04 -98.58)"/><path class="cls-1" d="M193.61,113.4c4.88-5.92,1.53-9-1.33-8.22s-5.74,1.16-5.74,1.16l7.7.82Z" transform="translate(-87.04 -98.58)"/><path class="cls-1" d="M207.47,102c-5.27,5.58-2.13,8.83.78,8.29s5.8-.77,5.8-.77l-7.63-1.34Z" transform="translate(-87.04 -98.58)"/><path class="cls-1" d="M225.21,110.85c2.84-2.24,2.09-6.58,1.66-6.73s-5.38-.85-1.32,4.14c.36.44-2.42,4-6.4,2.34-1.24-.52-2.18-1.89-3.48-4.48-1-2.05-2.45-4.92-4.9-6.38-3.26-1.95-8.24-1.37-10.53,1.21-1,1.08-2.36,3.15-1.67,4.34,0,0,.48,1.43,1.59,1.52.45,0,3.91.79,1.21-3.21-1.2-1.77,2.83-2.31,4.58-2.2,1.43.1,5.06.45,6.39,4.25C215,113.14,220,114.93,225.21,110.85Z" transform="translate(-87.04 -98.58)"/><path class="cls-1" d="M353,247.82c2,3,6.4,2.61,6.58,2.19s1.28-5.3-4-1.64c-.47.32-3.83-2.74-1.82-6.58.62-1.19,2.05-2,4.74-3.1,2.13-.86,5.1-2.06,6.76-4.38,2.19-3.09,2-8.1-.37-10.59-1-1.05-3-2.61-4.2-2,0,0-1.46.36-1.64,1.46-.07.45-1.1,3.83,3.1,1.46,1.86-1,2.09,3,1.83,4.75-.21,1.41-.85,5-4.75,6C351.58,237.41,349.39,242.34,353,247.82Z" transform="translate(-87.04 -98.58)"/><path class="cls-1" d="M354.1,242.39c3.71,6.72,7.77,4.72,8.14,1.79s1-5.77,1-5.77l-3.59,6.87Z" transform="translate(-87.04 -98.58)"/><path class="cls-1" d="M361.11,259.46c-4.5-6.22-8.28-3.74-8.3-.79s-.32,5.85-.32,5.85l2.74-7.25Z" transform="translate(-87.04 -98.58)"/><path class="cls-1" d="M349.1,275.23c1.67,3.21,6.08,3.29,6.3,2.89s1.84-5.12-3.81-2.07c-.5.27-3.52-3.13-1.11-6.73.75-1.11,2.27-1.78,5-2.57,2.21-.62,5.3-1.49,7.19-3.63,2.52-2.83,2.88-7.83.78-10.57-.88-1.14-2.65-2.91-3.95-2.45,0,0-1.5.21-1.8,1.28-.12.44-1.5,3.69,2.93,1.79,2-.85,1.75,3.21,1.31,4.91-.36,1.38-1.39,4.89-5.37,5.48C348.78,264.73,346.07,269.39,349.1,275.23Z" transform="translate(-87.04 -98.58)"/><path class="cls-1" d="M350.74,270c3,7.08,7.21,5.53,7.9,2.66s1.64-5.62,1.64-5.62L356,273.42Z" transform="translate(-87.04 -98.58)"/><path class="cls-1" d="M353.79,287.56c-3-7.06-7.25-5.47-7.92-2.59s-1.6,5.63-1.6,5.63l4.26-6.47Z" transform="translate(-87.04 -98.58)"/><path class="cls-1" d="M338.6,300.3c.93,3.5,5.21,4.55,5.51,4.21s2.93-4.6-3.26-2.86c-.55.15-2.74-3.83.4-6.81,1-.92,2.6-1.24,5.5-1.4,2.29-.12,5.49-.29,7.81-1.95,3.08-2.21,4.53-7,3.08-10.14-.6-1.31-1.94-3.42-3.32-3.26,0,0-1.5-.13-2,.85-.22.4-2.28,3.27,2.46,2.39,2.1-.39,1,3.51.19,5.08-.66,1.27-2.43,4.46-6.45,4.16C340.6,290,336.93,293.94,338.6,300.3Z" transform="translate(-87.04 -98.58)"/><path class="cls-1" d="M341.37,295.51c1.33,7.56,5.81,7,7.11,4.33s2.85-5.12,2.85-5.12l-5.63,5.33Z" transform="translate(-87.04 -98.58)"/><path class="cls-1" d="M341,313.45c-.82-7.63-5.34-7.35-6.81-4.8s-3.18,4.92-3.18,4.92l6-4.94Z" transform="translate(-87.04 -98.58)"/><path class="cls-1" d="M322.78,321.19c-.14,3.61,3.65,5.87,4,5.63s4.14-3.53-2.29-3.68c-.57,0-1.5-4.47,2.38-6.4,1.2-.59,2.85-.42,5.66.28,2.23.55,5.34,1.33,8,.41,3.59-1.21,6.39-5.37,5.92-8.79-.19-1.43-.86-3.84-2.22-4.09,0,0-1.4-.56-2.19.22-.32.32-3.13,2.46,1.66,3,2.12.25-.08,3.66-1.31,4.92-1,1-3.62,3.55-7.38,2.09C327.7,311.91,323,314.62,322.78,321.19Z" transform="translate(-87.04 -98.58)"/><path class="cls-1" d="M326.82,317.42c-.94,7.62,3.52,8.37,5.54,6.22s4.22-4.06,4.22-4.06L329.64,323Z" transform="translate(-87.04 -98.58)"/><path class="cls-1" d="M322.5,334.91c.51-7.66-4-8.16-5.88-5.9s-4,4.3-4,4.3l6.74-3.84Z" transform="translate(-87.04 -98.58)"/><path class="cls-1" d="M303.2,339.39c-.77,3.53,2.58,6.41,3,6.24s4.69-2.77-1.62-4c-.56-.11-.7-4.66,3.45-5.89,1.29-.38,2.88.07,5.53,1.25,2.1.93,5,2.23,7.85,1.79,3.75-.57,7.22-4.19,7.35-7.63.05-1.45-.19-3.94-1.49-4.42,0,0-1.27-.79-2.19-.16-.37.26-3.51,1.89,1.11,3.25,2.06.6-.7,3.58-2.13,4.61-1.16.84-4.18,2.88-7.63.79C309.65,331.1,304.58,333,303.2,339.39Z" transform="translate(-87.04 -98.58)"/><path class="cls-1" d="M307.83,336.37c-2.24,7.34,2,8.86,4.38,7.09s4.86-3.28,4.86-3.28l-7.43,2.2Z" transform="translate(-87.04 -98.58)"/><path class="cls-1" d="M301.09,352.86c1.81-7.46-2.53-8.72-4.78-6.82s-4.66,3.56-4.66,3.56l7.29-2.63Z" transform="translate(-87.04 -98.58)"/><path class="cls-1" d="M281.31,354c-1.36,3.35,1.45,6.76,1.89,6.67s5.1-1.93-.9-4.25c-.54-.2.1-4.71,4.4-5.21,1.33-.16,2.83.56,5.23,2.17,1.91,1.27,4.58,3.05,7.43,3.11,3.79.07,7.83-2.9,8.54-6.27.3-1.42.49-3.91-.71-4.6,0,0-1.12-1-2.13-.54-.41.19-3.78,1.26.55,3.39,1.91.94-1.31,3.41-2.9,4.18-1.28.63-4.61,2.12-7.65-.52C289.08,346.91,283.77,347.88,281.31,354Z" transform="translate(-87.04 -98.58)"/><path class="cls-1" d="M286.39,351.8c-3.46,6.85.48,9.07,3.11,7.72s5.34-2.4,5.34-2.4l-7.69.9Z" transform="translate(-87.04 -98.58)"/><path class="cls-1" d="M275,365.55c3.41-6.88-.55-9.07-3.16-7.71s-5.33,2.45-5.33,2.45l7.69-1Z" transform="translate(-87.04 -98.58)"/><path class="cls-1" d="M255.43,362.28c-2.06,3-.08,6.91.38,6.92s5.39-.76.05-4.34c-.48-.32,1.13-4.57,5.44-4.12,1.33.15,2.63,1.17,4.63,3.28,1.58,1.66,3.79,4,6.56,4.67,3.68.9,8.27-1.11,9.71-4.24.61-1.32,1.34-3.71.32-4.65,0,0-.87-1.22-2-1-.44.1-4,.4-.21,3.43,1.66,1.34-2,3-3.75,3.44-1.39.33-5,1.06-7.35-2.19C264.56,357.09,259.17,356.87,255.43,362.28Z" transform="translate(-87.04 -98.58)"/><path class="cls-1" d="M260.86,361.27c-4.88,5.92-1.53,9,1.33,8.22s5.74-1.16,5.74-1.16l-7.7-.82Z" transform="translate(-87.04 -98.58)"/><path class="cls-1" d="M247,372.66c5.27-5.58,2.13-8.83-.77-8.29s-5.81.78-5.81.78l7.63,1.33Z" transform="translate(-87.04 -98.58)"/><path class="cls-1" d="M229.26,363.82c-2.83,2.24-2.09,6.58-1.66,6.73s5.38.85,1.32-4.14c-.36-.44,2.43-4,6.41-2.34,1.23.52,2.18,1.89,3.47,4.48,1,2.05,2.46,4.92,4.91,6.39,3.25,1.94,8.23,1.36,10.52-1.21,1-1.08,2.37-3.15,1.67-4.35,0,0-.48-1.43-1.59-1.52-.45,0-3.91-.79-1.2,3.21,1.19,1.77-2.83,2.31-4.59,2.2-1.42-.1-5.06-.45-6.39-4.25C239.52,361.53,234.43,359.74,229.26,363.82Z" transform="translate(-87.04 -98.58)"/><path class="cls-1" d="M232.29,374.25c5.7-5.14,2.82-8.63-.11-8.32s-5.85.31-5.85.31l7.5,1.93Z" transform="translate(-87.04 -98.58)"/><path class="cls-1" d="M215.31,364c-3,2-2.61,6.4-2.19,6.58s5.3,1.28,1.64-4c-.32-.47,2.74-3.83,6.58-1.83,1.19.63,2,2.06,3.1,4.75.86,2.13,2.06,5.1,4.38,6.76,3.09,2.19,8.1,2,10.59-.37,1.05-1,2.61-2.95,2-4.2,0,0-.36-1.46-1.46-1.64-.45-.08-3.83-1.1-1.46,3.1,1.05,1.86-3,2.09-4.75,1.83-1.41-.21-5-.85-6-4.75C225.72,362.56,220.79,360.37,215.31,364Z" transform="translate(-87.04 -98.58)"/><path class="cls-1" d="M220.74,365.08c-6.72,3.71-4.72,7.77-1.79,8.14s5.77,1,5.77,1l-6.87-3.59Z" transform="translate(-87.04 -98.58)"/><path class="cls-1" d="M203.67,372.09c6.22-4.5,3.74-8.28.79-8.3s-5.85-.32-5.85-.32l7.25,2.74Z" transform="translate(-87.04 -98.58)"/><path class="cls-1" d="M187.9,360.08c-3.21,1.67-3.29,6.08-2.89,6.3s5.13,1.84,2.07-3.81c-.27-.5,3.13-3.52,6.73-1.11,1.11.75,1.78,2.27,2.57,5.05.62,2.21,1.49,5.3,3.63,7.19,2.83,2.52,7.83,2.88,10.57.78,1.14-.88,2.91-2.65,2.45-4,0,0-.21-1.49-1.28-1.79-.44-.12-3.69-1.5-1.79,2.93.85,2-3.21,1.75-4.91,1.3-1.38-.35-4.89-1.38-5.48-5.36C198.4,359.75,193.74,357,187.9,360.08Z" transform="translate(-87.04 -98.58)"/><path class="cls-1" d="M193.18,361.72c-7.08,3-5.53,7.21-2.66,7.9s5.62,1.64,5.62,1.64L189.71,367Z" transform="translate(-87.04 -98.58)"/><path class="cls-1" d="M175.57,364.77c7.06-3,5.47-7.25,2.59-7.92s-5.63-1.6-5.63-1.6l6.47,4.26Z" transform="translate(-87.04 -98.58)"/><path class="cls-1" d="M162.83,349.58c-3.5.93-4.55,5.21-4.21,5.51s4.6,2.93,2.86-3.26c-.15-.55,3.83-2.74,6.81.4.92,1,1.24,2.6,1.4,5.5.12,2.29.29,5.49,1.95,7.81,2.21,3.08,7,4.53,10.14,3.08,1.31-.6,3.42-1.94,3.26-3.32,0,0,.13-1.5-.85-2-.4-.22-3.27-2.28-2.39,2.46.39,2.1-3.51,1-5.08.19-1.27-.66-4.46-2.43-4.16-6.45C173.14,351.58,169.19,347.91,162.83,349.58Z" transform="translate(-87.04 -98.58)"/><path class="cls-1" d="M167.62,352.35c-7.56,1.33-7,5.81-4.33,7.11s5.12,2.85,5.12,2.85l-5.33-5.63Z" transform="translate(-87.04 -98.58)"/><path class="cls-1" d="M149.68,352c7.63-.82,7.35-5.34,4.8-6.81s-4.92-3.18-4.92-3.18l4.94,6Z" transform="translate(-87.04 -98.58)"/><path class="cls-1" d="M141.94,333.76c-3.61-.14-5.87,3.65-5.63,4s3.53,4.14,3.68-2.29c0-.57,4.47-1.5,6.4,2.38.59,1.2.42,2.85-.28,5.66-.55,2.23-1.33,5.34-.41,8,1.21,3.59,5.37,6.39,8.79,5.92,1.43-.19,3.84-.86,4.09-2.22,0,0,.56-1.4-.22-2.19-.32-.32-2.46-3.13-3,1.66-.24,2.12-3.66-.08-4.92-1.31-1-1-3.55-3.62-2.09-7.38C151.22,338.68,148.51,334,141.94,333.76Z" transform="translate(-87.04 -98.58)"/><path class="cls-1" d="M145.71,337.8c-7.62-.94-8.37,3.52-6.22,5.54s4.06,4.22,4.06,4.22l-3.45-6.94Z" transform="translate(-87.04 -98.58)"/><path class="cls-1" d="M128.22,333.48c7.66.51,8.16-4,5.9-5.88s-4.3-4-4.3-4l3.84,6.73Z" transform="translate(-87.04 -98.58)"/><path class="cls-1" d="M123.74,314.18c-3.53-.77-6.41,2.58-6.24,3s2.77,4.69,4-1.62c.11-.56,4.66-.7,5.89,3.45.38,1.29-.07,2.88-1.25,5.53-.93,2.1-2.23,5-1.79,7.85.57,3.75,4.19,7.22,7.63,7.35,1.45.05,3.94-.19,4.42-1.49,0,0,.79-1.28.16-2.19-.26-.37-1.89-3.51-3.25,1.11-.6,2.05-3.58-.7-4.61-2.13-.84-1.16-2.88-4.18-.79-7.63C132,320.63,130.17,315.56,123.74,314.18Z" transform="translate(-87.04 -98.58)"/><path class="cls-1" d="M126.76,318.81c-7.34-2.24-8.86,2-7.09,4.38s3.28,4.86,3.28,4.86l-2.2-7.43Z" transform="translate(-87.04 -98.58)"/><path class="cls-1" d="M110.27,312.07c7.46,1.81,8.72-2.53,6.82-4.78s-3.56-4.66-3.56-4.66l2.63,7.29Z" transform="translate(-87.04 -98.58)"/><path class="cls-1" d="M109.15,292.29c-3.35-1.36-6.76,1.45-6.66,1.89s1.92,5.1,4.24-.9c.2-.54,4.71.1,5.21,4.39.16,1.34-.56,2.83-2.17,5.24-1.27,1.91-3,4.58-3.11,7.43-.07,3.79,2.9,7.83,6.27,8.54,1.42.3,3.91.49,4.6-.71,0,0,1-1.12.54-2.13-.19-.41-1.26-3.78-3.39.55-.94,1.91-3.41-1.31-4.18-2.9-.63-1.28-2.12-4.61.52-7.65C116.22,300.06,115.25,294.75,109.15,292.29Z" transform="translate(-87.04 -98.58)"/><path class="cls-1" d="M111.33,297.37c-6.85-3.46-9.07.48-7.72,3.11s2.4,5.34,2.4,5.34l-.9-7.7Z" transform="translate(-87.04 -98.58)"/><path class="cls-1" d="M97.58,286c6.88,3.41,9.07-.55,7.71-3.16s-2.45-5.33-2.45-5.33l1,7.69Z" transform="translate(-87.04 -98.58)"/><path class="cls-1" d="M100.85,266.4c-3-2-6.91-.07-6.92.39s.76,5.39,4.34,0c.32-.48,4.57,1.13,4.12,5.44-.15,1.33-1.17,2.63-3.28,4.63-1.66,1.58-4,3.79-4.66,6.56-.91,3.68,1.1,8.27,4.23,9.71,1.32.61,3.71,1.34,4.65.32,0,0,1.22-.87,1-2-.1-.45-.4-4-3.43-.21-1.34,1.66-3-2-3.44-3.75-.33-1.39-1-5,2.19-7.35C106,275.54,106.26,270.15,100.85,266.4Z" transform="translate(-87.04 -98.58)"/><path class="cls-1" d="M101.86,271.84c-5.92-4.88-9-1.53-8.22,1.33s1.16,5.74,1.16,5.74l.82-7.7Z" transform="translate(-87.04 -98.58)"/><path class="cls-1" d="M90.47,258c5.58,5.27,8.83,2.13,8.29-.77S98,251.4,98,251.4L96.65,259Z" transform="translate(-87.04 -98.58)"/><path class="cls-1" d="M99.31,240.24c-2.24-2.83-6.58-2.09-6.73-1.66s-.85,5.38,4.14,1.32c.44-.36,4,2.43,2.34,6.41-.52,1.23-1.89,2.18-4.48,3.47-2,1-4.92,2.46-6.38,4.91-2,3.25-1.37,8.23,1.2,10.52,1.08,1,3.15,2.37,4.35,1.67,0,0,1.43-.48,1.52-1.59,0-.45.79-3.91-3.21-1.2-1.77,1.19-2.31-2.83-2.2-4.59.1-1.42.45-5.06,4.25-6.39C101.6,250.5,103.39,245.41,99.31,240.24Z" transform="translate(-87.04 -98.58)"/><polygon class="cls-2" points="196.49 122.03 158.02 142.59 210.63 127.37 196.49 122.03"/><polygon class="cls-2" points="167.6 91.51 150.92 131.82 181.91 86.66 167.6 91.51"/><polygon class="cls-2" points="120.26 90.23 132.42 132.12 128.41 77.5 120.26 90.23"/><polygon class="cls-2" points="197.66 171.87 156.11 158.57 203.67 185.74 197.66 171.87"/><polygon class="cls-2" points="157.77 206.38 144.2 164.93 150.06 219.38 157.77 206.38"/><polygon class="cls-2" points="107.8 204.93 129 166.8 93.03 208.11 107.8 204.93"/><polygon class="cls-2" points="78.1 165.24 121.09 157.88 66.37 155.71 78.1 165.24"/><polygon class="cls-2" points="83.1 118.41 120.27 141.25 80.58 103.51 83.1 118.41"/></svg>